<?xml version="1.0" encoding="utf-8"?>
<!-- Generator: Adobe Illustrator 24.3.0, SVG Export Plug-In . SVG Version: 6.00 Build 0)  -->
<svg version="1.1" id="Layer_1" xmlns="http://www.w3.org/2000/svg" xmlns:xlink="http://www.w3.org/1999/xlink" x="0px" y="0px"
	 viewBox="0 0 2671.3 874.1" style="enable-background:new 0 0 2671.3 874.1;" xml:space="preserve">
<style type="text/css">
	.st0{fill:#FFB6D4;}
	.st1{fill:#15E8DD;}
	.st2{fill:#1516F5;}
	.st3{fill:#FB3C43;}
	.st4{fill:#FFFFFF;}
	.st5{fill:#020339;}
</style>
<g>
	<g>
		<path class="st5" d="M2306.2,181.1c-140.7,0-254.7,114-254.7,254.7c0,140.7,114,254.7,254.7,254.7c140.7,0,254.7-114,254.7-254.7
			C2560.9,295.1,2446.9,181.1,2306.2,181.1z M2395.4,601.4c-29.1,0-54.3-16.2-67.2-40.1c-7.1,1.2-14.4,1.9-21.9,1.9
			c-70.3,0-127.4-57-127.4-127.4c0-70.3,57-127.4,127.4-127.4s127.4,57,127.4,127.4c0,7.5-0.6,14.8-1.9,21.9
			c23.9,12.9,40.1,38.2,40.1,67.2C2471.8,567.2,2437.6,601.4,2395.4,601.4z"/>
		<path class="st5" d="M2431.7,457.7c-9.1,52.8-50.8,94.4-103.6,103.6c-5.8-10.8-9.2-23.2-9.2-36.3c0-42.2,34.2-76.4,76.4-76.4
			C2408.5,448.6,2420.9,451.9,2431.7,457.7z"/>
	</g>
	<g>
		<path class="st5" d="M283.6,259.7c-95.5,0-173.2,64.3-173.2,170.9s77.7,170.9,173.2,170.9c30.7,0,59-7.2,84-20.6l40.8,46.1
			l39.4-34.1l-38.9-43.2c29.8-30.2,48-72,48-119C456.9,324,379.6,259.7,283.6,259.7z M369.6,504.9l-37.4-44.6l-39.9,34.6l37.4,42.2
			c-14.5,6.4-30.2,9.7-46.1,9.6c-60.9,0-108.9-44.6-108.9-116.6s47.5-116.1,108.9-116.1v0c61.4,0,108.9,44.2,109,116.1
			C392.6,460.3,384,485.7,369.6,504.9z"/>
		<path class="st5" d="M645.3,487.2c0,38.9-13.9,68.1-50.9,68.1c-35.5,0-41.3-27.4-41.3-61.9V369.1h-61.4v137.7
			c0,55.7,16.3,98.9,83,98.9c33.6,0,58.5-13.9,72-37l0.5,32.6h59.5V369.1h-61.4V487.2z"/>
		<path class="st5" d="M924.9,391.7c-17.3-16.3-40.8-26.9-82.1-26.9c-40.3,0-72.9,13.9-90.7,24.5l18.7,39.3
			c10.1-7.7,35.6-19.2,66.2-19.2c32.2,0,51.8,13.9,51.8,43.7v6.2l-55.7,3.8c-48,3.4-95.5,22.1-95.5,70.5s36.5,73,81.6,73
			c34.5,0,61.4-15.4,71.1-32.2l1,26.9h59V468.5C950.4,429.1,941.7,408,924.9,391.7z M889.4,539.5c-11.7,15.9-30.2,25.3-49.9,25.4
			c-25.4,0-40.3-13.4-40.3-33.1c0-19.7,15.8-30.7,48.5-32.6l41.8-2.4V539.5z"/>
		<path class="st5" d="M1124.8,364.8c-33.6,0-57.1,14.9-69.6,39.4h-1.4l0.5-35h-61.4v232.3h61.4V485.7c0-38.9,13-70.5,50.9-70.5
			c35.5,0,41.8,27.4,41.8,61.9v124.3h61.4V463.6C1208.3,408,1191.5,364.8,1124.8,364.8z"/>
		<path class="st5" d="M1423.9,361.9c0,16.3,0,28.8,0.5,39.4h-1c-16.3-25-42.7-36.5-73.9-36.5c-70.5,0-114.2,54.2-114.2,120
			c0,69.1,41.7,121.9,109.9,121.9c32.2,0,60.9-12,79.7-41.8h1.4l0.5,36.5h58.1V270.2h-61V361.9z M1425.4,484.8
			c0,43.7-25.9,72-62.9,72c-39.8,0-64.8-31.7-64.8-72c0-38.9,23-73,62.9-73C1399.9,411.8,1425.4,445.9,1425.4,484.8L1425.4,484.8z"
			/>
		<path class="st5" d="M1565.2,264c-21.6,0-37,14.4-37,34.1c0,20.2,15.3,34.1,36.9,34.1c21.6,0,37-13.9,37-34.1
			C1602.1,278.4,1586.8,264,1565.2,264z"/>
		<rect x="1534.5" y="369.1" class="st5" width="61.4" height="232.3"/>
		<path class="st5" d="M1809,369.1l-93.6,0.1v-19.7c0-22.1,6.2-39.9,32.6-39.9c13,0,26.4,3.8,26.4,3.8l3.8-44.1
			c0,0-17.3-4.8-45.6-4.8c-26.9,0-46.1,9.1-58.1,23c-12,13-19.7,36-19.7,64.3v17.2h-31.7v47.5h31.8v184.8h61.4V416.7h47.5
			l76.8,186.2l-10.1,24c-4.8,12-14.9,15.3-26.9,15.3c-11.5,0-27.8-5.8-27.8-5.8l-12.5,47c0,0,21.6,9.6,54.7,9.6
			c32.6,0,51.8-19.7,68.6-60.5l108-263.5h-63.8l-60.5,164.6L1809,369.1z"/>
	</g>
</g>
</svg>
